# xmcd
#
# Track frame offsets:
#	150
#	5265
#	24340
#	41392
#	59900
#	77207
#	92915
#	111437
#	132185
#
# Disc length: 2014 seconds
#
# Revision: 1
# Processed by: cddbd v1.5.2PL0 Copyright (c) Steve Scherf et al.
# Submitted via: EasyCDDAExtractor 10.0.3.1
#
DISCID=7107dc09
DTITLE=COOL - THE [ku:l] II
DYEAR=1995
DGENRE=Ballad
TTITLE0=프롤로그
TTITLE1=작은 기다림
TTITLE2=나만의 자유
TTITLE3=슬퍼지려 하기 전에
TTITLE4=너 이길 원했던 이유 II
TTITLE5=나의 기도
TTITLE6=비밀의 연인
TTITLE7=이젠
TTITLE8=작은 기다림 (Instrumental)
EXTD=YEAR: 1995
EXTT0=
EXTT1=
EXTT2=
EXTT3=
EXTT4=
EXTT5=
EXTT6=
EXTT7=
EXTT8=
PLAYORDER=
